<?xml version="1.0" encoding="utf-8"?>
<!-- Generator: Adobe Illustrator 23.0.1, SVG Export Plug-In . SVG Version: 6.00 Build 0)  -->
<svg version="1.1" id="Layer_1" xmlns="http://www.w3.org/2000/svg" xmlns:xlink="http://www.w3.org/1999/xlink" x="0px" y="0px"
	 viewBox="0 0 518.96 484.94" style="enable-background:new 0 0 518.96 484.94;" xml:space="preserve">
<style type="text/css">
	.st0{fill:#EDEDED;}
	.st1{fill:#E1DDDC;}
	.st2{fill:#F5C8AB;}
	.st3{fill:#FDFEF9;}
	.st4{fill:#232221;}
	.st5{fill:#EDAF7E;}
</style>
<g>
	<path class="st0" d="M382.76,378.55c0,0,21.37-0.55,26.84,12.59s35.57,2.19,39.4,0c3.83-2.19,15.87,4.93,15.87,1.64
		c0-3.28-4.93-25.17-21.34-28.46c-16.42-3.28-10.95-18.61-13.13-24.08c-2.19-5.47-10.4-18.61-10.4-18.61s26.82,1.89,28.46,10.52
		c1.64,8.63,19.7,25.05,39.4,20.13c6.14-4.23-13.68-22.44-13.68-22.44s-3.83-58.56-35.02-50.9c-10.81-0.55,21.89-18.06,41.04-11.49
		s32.01,1.64,35.02-5.2c3.01-6.84-22.71-8.76-26.27-18.06c-3.56-9.3-23.81-26.27-52.54-20.52c0,0,14.78-27.64,27.36-29.55
		c12.59-1.92,42.69,12.04,49.53-20.8c0,0-28.73-2.74-40.77-21.62c-12.04-18.88-61.84-5.2-63.76-7.11
		c-1.92-1.92,10.67-31.74,53.08-28.46c0,0-26.82-26.27-63.76-11.49c0,0,29.55-51.72-0.27-77.71c0,0,1.86,22.16-15.08,18.61
		C365.82,41.99,332.43,19,318.48,75.1c0,0-4.1-50.9,23.26-59.1s-61.84-9.3-73.33,42.14c0,0,1.09-39.68,20.8-52.26
		c15.05-8.76-50.9,6.57-51.17,49.53c0,0-39.13-52.81-69.78-32.01c0,0,28.46,16.96,25.17,56.09c0,0-9.85-51.17-59.38-27.64
		C103.13,63.6,114.9,33.78,114.9,32.68c0,0-35.85,25.72,0.27,82.09c0,0-40.77-8.76-64.85,16.42c0,0,41.32-15.05,59.93,24.63
		c0,0-44.05-32.29-68.68,11.77C26.24,193.3,5.99,187.83,5.99,187.83s7.11,33.08,37.21,21.05c30.1-12.02,31.47,20.26,39.13,25.19
		c7.66,4.92-39.13-4.93-48.16,25.99c-5.73,12.54-28.18,14.78-28.18,14.78s13.68,21.62,44.33,9.03c13.96-6.02,31.19,6.02,31.19,6.02
		s-31.47,11.22-22.16,50.9c0,0-22.99,14.23-16.69,31.19c4.39,5.83,6.29-8.48,27.36-5.47c13.68-2.46-5.75-32.92,36.94-31.37
		c0,0-1.92,28.63-12.59,37.67c-10.67,9.03-27.64,16.96-22.99,35.3c6.57-4.65,23.81-8.48,38.03,0c14.23,8.48,20.25-17.51,26-19.15
		c5.75-1.64,19.45,1.3,19.45,1.3"/>
	<path class="st1" d="M141.26,266.58c0,0-15.48-23.9-27.87-29.35c0,0,20.75-5.51,27.68-3.53c6.94,1.98-21.33-29.75-21.33-29.75
		l31.69,2.46c0,0-2.48-37.66,4.45-43.6c0,0,16.35,19.32,22.29,19.81c0,0,17.34-46.07,13.37-52.02c0,0,20.31,18.82,20.81,30.71
		c0,0,20.81-33.19,17.83-43.1c-2.97-9.91,17.83,21.3,10.9,38.64c-6.94,17.34,29.23-54.5,30.71-64.4
		c1.49-9.91,21.8,49.54,18.83,58.45c-2.97,8.92,18.33-16.84,20.81-26.25c2.48-9.41,6.04,26.26,4.05,30.22
		c-1.98,3.96,36.25-20.81,36.25-26.75c0-5.94,0,48.55,0,48.55s9.57-13.38,9.08-17.34c-0.5-3.97,8.5,27.25,5.03,38.15
		c0,0,24.32-5.45,33.73-1.49c9.41,3.96-25.25,17.83-22.77,28.73c0,0,24.28,0.34,28.25,2.65c3.96,2.3-39.63,39.21-39.63,39.21"/>
	<path class="st2" d="M353.83,301.66l-17.64-84.93h7.09c-2.83-4-6.55-5.94-9.55-7.99v0v0c-71-51.6-127.23-11.7-144.21,2.61
		c-3.35,2.82-4.58,5.38-4.58,5.38h4.57l-11.08,91.1c-15.3,16.05-25.39,38.59-25.39,63.99c0,47.48,33.7,85.82,74.7,87.51v0
		c9,13.25,24.73,21.95,41.96,21.95c20.13,0,37.74-11.88,45.69-29.01l-0.11,3c30.15-4.96,57.08-30.02,65.8-65.43
		C389.78,354.6,378,320.13,353.83,301.66z"/>
	<path class="st3" d="M299.05,372.35c41.59,14.96,37.58,46.7,37.58,46.7c-78.81,21.53-143.75,0-143.75,0s-0.73-34.66,38.67-46.7"/>
	<path class="st2" d="M254.18,309.6c0,0-32.56,76.62,10.54,77.71c43.1,1.09,10.62-77.71,10.62-77.71"/>
	<path class="st2" d="M244.52,373.74c-0.48,0.05-0.97,0.08-1.47,0.08c-7.56,0-13.68-6.13-13.68-13.68c0-7.56,6.13-13.68,13.68-13.68
		"/>
	<path class="st2" d="M285.19,373.74c0.48,0.05,0.97,0.08,1.47,0.08c7.56,0,13.68-6.13,13.68-13.68c0-7.56-6.13-13.68-13.68-13.68"
		/>
	<path class="st3" d="M316.89,274.52c0,0-19.75-5.91-32.66-4.86c-12.91,1.05,18.66-33.07,44.96,1.53c0,0,4.02,6.05,1.02,8.71
		S323.42,277.06,316.89,274.52z"/>
	<path class="st3" d="M217.96,274.52c0,0,19.75-5.91,32.66-4.86c12.91,1.05-18.66-33.07-44.96,1.53c0,0-4.02,6.05-1.02,8.71
		S211.44,277.06,217.96,274.52z"/>
	<path class="st4" d="M240.68,308.23c0,8.62-5.91,15.6-13.2,15.6c-7.29,0-13.2-6.98-13.2-15.6c0-8.61,5.91-15.6,13.2-15.6
		C234.77,292.63,240.68,299.62,240.68,308.23z"/>
	<path class="st4" d="M316.2,308.23c0,8.62-5.91,15.6-13.2,15.6c-7.29,0-13.2-6.98-13.2-15.6c0-8.61,5.91-15.6,13.2-15.6
		C310.29,292.63,316.2,299.62,316.2,308.23z"/>
	<path class="st5" d="M245.82,376.7c0,0,16.7-16.08,38.25,0l-3.26,6.96l-16.1,3.65c0,0-7.59-1.08-8.74-1.56
		c-1.15-0.47-6.24-3.82-6.24-3.82L245.82,376.7z"/>
	<path class="st5" d="M225.86,455.43c0,0,34.95,21.05,85.45,0l-6.42,11.64l-31.34,14.22l-22.11-3.32l-15.6-8.02L225.86,455.43z"/>
	<path class="st5" d="M169.2,425.25c0,0,37.18,26.29,53.42,23l1.64,11.24l-14.9-3.42l-18.64-7.83l-16.82-13.87L169.2,425.25z"/>
	<path class="st5" d="M367.83,417.31c0,0-35.8,28.15-52.18,25.69l-1.07,11.31l14.7-4.18l18.21-8.77l16.09-14.7L367.83,417.31z"/>
	<path class="st2" d="M165.64,318.27c-28.69,2.88-38.68-35.55-23.2-51.07c15.48-15.53,38.28,6.49,38.28,6.49l-1.51,30.44
		L165.64,318.27z"/>
	<path class="st5" d="M135.23,288.72c0,0,20.81,27.28,41.69,17.79l-12.5,13.22L148.18,314l-8.39-13.71L135.23,288.72z"/>
	<path class="st4" d="M183.15,271.17c-0.11-0.1-3.37-3.25-8.37-6.45c-2.51-1.6-5.45-3.22-8.71-4.46c-3.25-1.24-6.82-2.11-10.57-2.11
		c-2.63,0-5.35,0.44-8.01,1.5c-2.65,1.06-5.21,2.73-7.54,5.07l0,0c-2.87,2.87-4.94,6.38-6.29,10.15c-1.35,3.78-1.99,7.85-1.99,11.96
		c0,4.19,0.67,8.42,1.97,12.45c1.96,6.04,5.36,11.65,10.24,15.82c2.44,2.08,5.25,3.79,8.4,4.98c3.14,1.18,6.61,1.83,10.33,1.83
		c1.1,0,2.22-0.06,3.37-0.17c1.92-0.19,3.33-1.91,3.13-3.83c-0.19-1.92-1.91-3.33-3.83-3.13c-0.92,0.09-1.81,0.14-2.67,0.14
		c-3.88,0-7.22-0.88-10.14-2.39c-4.36-2.26-7.81-6.02-10.18-10.6c-2.37-4.57-3.63-9.92-3.63-15.09c0-3.38,0.53-6.67,1.58-9.6
		c1.05-2.94,2.61-5.52,4.65-7.57l0,0c1.71-1.71,3.43-2.81,5.18-3.51c1.75-0.7,3.54-1,5.4-1c2.63,0,5.4,0.63,8.07,1.65
		c4.01,1.52,7.75,3.9,10.45,5.89c1.35,1,2.43,1.89,3.17,2.53c0.37,0.32,0.65,0.57,0.84,0.74c0.09,0.08,0.16,0.15,0.2,0.19l0.04,0.04
		l0.01,0.01l0.79-0.82l-0.79,0.82l0,0l0.79-0.82l-0.79,0.82c1.39,1.34,3.61,1.3,4.95-0.09
		C184.57,274.73,184.54,272.51,183.15,271.17L183.15,271.17z"/>
	<path class="st2" d="M365.88,318.27c28.7,2.88,38.68-35.55,23.2-51.07c-15.48-15.53-38.28,6.49-38.28,6.49l1.51,30.44
		L365.88,318.27z"/>
	<path class="st5" d="M396.29,288.72c0,0-20.81,27.28-41.69,17.79l12.5,13.22l16.24-5.72l8.38-13.71L396.29,288.72z"/>
	<path class="st4" d="M353.23,276.2l-0.27-0.28L353.23,276.2L353.23,276.2l-0.27-0.28L353.23,276.2c0.08-0.08,3.1-2.95,7.49-5.72
		c2.19-1.39,4.72-2.74,7.35-3.73c2.63-0.99,5.35-1.61,7.95-1.6c1.86,0,3.66,0.31,5.4,1c1.75,0.7,3.47,1.8,5.18,3.51
		c2.05,2.05,3.6,4.63,4.65,7.57c1.05,2.94,1.58,6.23,1.58,9.6c0.01,6.61-2.06,13.51-5.86,18.71c-1.9,2.6-4.2,4.79-6.89,6.39
		c-2.69,1.6-5.77,2.64-9.32,2.91c-1.93,0.15-3.37,1.83-3.22,3.76c0.15,1.93,1.83,3.37,3.76,3.22c4.61-0.35,8.78-1.74,12.36-3.88
		c5.38-3.21,9.42-8.04,12.11-13.5c2.69-5.47,4.06-11.59,4.06-17.61c0-4.11-0.64-8.18-1.99-11.96c-1.35-3.78-3.42-7.28-6.29-10.15
		c-2.32-2.34-4.89-4.01-7.54-5.07c-2.65-1.06-5.37-1.51-8.01-1.5c-3.74,0-7.31,0.87-10.57,2.11c-4.88,1.86-9.08,4.56-12.11,6.8
		c-3.03,2.24-4.89,4.03-4.97,4.11c-1.39,1.34-1.43,3.56-0.09,4.95C349.63,277.51,351.84,277.55,353.23,276.2L353.23,276.2z"/>
	<path class="st4" d="M187.02,217.89l-1.52-1.46L187.02,217.89L187.02,217.89l-1.52-1.46L187.02,217.89l0.08-0.08
		c0.89-0.9,8.84-8.78,22.03-16.38c13.2-7.6,31.57-14.9,53.42-14.9c11.33,0,23.6,1.95,36.67,6.87c13.07,4.92,26.94,12.81,41.39,24.76
		c1.49,1.23,3.7,1.02,4.93-0.47c1.23-1.49,1.02-3.7-0.47-4.93c-14.98-12.38-29.53-20.7-43.38-25.91
		c-13.85-5.22-27.01-7.32-39.14-7.32c-12.13,0-23.24,2.1-33.05,5.23c-14.72,4.71-26.54,11.73-34.71,17.59
		c-8.17,5.86-12.7,10.56-12.81,10.68c-1.34,1.39-1.29,3.61,0.1,4.95C183.46,219.33,185.68,219.29,187.02,217.89L187.02,217.89z"/>
	<path class="st4" d="M80.34,286.6c-0.28,0.11-6.67,2.39-13.18,8.57c-3.25,3.09-6.52,7.17-8.97,12.42
		c-2.45,5.25-4.06,11.65-4.06,19.25c0,4.49,0.56,9.4,1.81,14.75l3.41-0.8l-1.84-2.98c-0.14,0.09-4.78,2.96-9.55,7.8
		c-2.38,2.43-4.8,5.36-6.68,8.76c-1.87,3.4-3.21,7.32-3.21,11.62c0,2.34,0.41,4.78,1.31,7.21l0.18,0.48l0.31,0.41
		c0.55,0.72,1.17,1.38,2,1.93c0.42,0.27,0.89,0.5,1.4,0.65c0.51,0.16,1.04,0.23,1.55,0.23c1.09,0,1.99-0.32,2.7-0.65
		c0.63-0.3,1.15-0.63,1.64-0.97c0.86-0.59,1.67-1.22,2.56-1.84c1.34-0.93,2.87-1.86,4.88-2.58c2.01-0.72,4.5-1.25,7.8-1.25
		c1.53,0,3.22,0.12,5.12,0.39l0.56,0.08l0.56-0.1c1.17-0.21,2.27-0.59,3.26-1.15c0.92-0.52,1.73-1.19,2.38-1.94
		c1.23-1.41,1.92-3.02,2.39-4.59c0.41-1.38,0.66-2.78,0.89-4.17c0.38-2.44,0.67-4.89,1.24-7.14c0.43-1.69,1-3.25,1.82-4.64
		c0.62-1.04,1.38-2,2.38-2.88c1.49-1.32,3.55-2.51,6.6-3.41c3.04-0.89,7.07-1.46,12.31-1.45c0.94,0,1.91,0.02,2.93,0.05l0.13-3.5
		l-3.49-0.23l0,0.01c-0.02,0.33-0.54,7.39-2.3,15.3c-0.88,3.95-2.07,8.11-3.62,11.7c-0.77,1.79-1.63,3.44-2.55,4.84
		c-0.92,1.4-1.9,2.55-2.89,3.38c-2.22,1.88-4.84,3.79-7.54,5.82c-4.05,3.06-8.3,6.37-11.67,10.55c-1.68,2.09-3.14,4.41-4.18,7.02
		c-1.04,2.6-1.64,5.48-1.63,8.59c0,2.18,0.29,4.47,0.9,6.86l1.25,4.94l4.16-2.95c1.41-1.01,3.84-2.16,6.81-2.99
		c2.97-0.84,6.5-1.39,10.22-1.39c5.65,0,11.7,1.26,17.2,4.53c2.41,1.44,4.89,2.19,7.3,2.19c1.85,0,3.6-0.44,5.14-1.17
		c2.71-1.28,4.81-3.29,6.62-5.47c1.36-1.64,2.55-3.4,3.63-5.12c1.63-2.58,3.04-5.09,4.24-6.89c0.59-0.89,1.14-1.6,1.53-2.01
		c0.19-0.2,0.34-0.33,0.41-0.37l0.03-0.02l0,0l-0.36-0.63l0.2,0.7c0.11-0.03,0.16-0.06,0.16-0.06l-0.36-0.63l0.2,0.7l0,0
		c0.72-0.22,2.11-0.37,3.7-0.36c2.88,0,6.46,0.42,9.26,0.86c1.4,0.22,2.61,0.44,3.46,0.6c0.43,0.08,0.77,0.15,0.99,0.2
		c0.11,0.02,0.2,0.04,0.26,0.05l0.06,0.01l0.02,0c1.89,0.41,3.75-0.8,4.16-2.69c0.41-1.89-0.8-3.75-2.69-4.16
		c-0.05-0.01-2.2-0.47-5.19-0.94c-3-0.46-6.81-0.94-10.33-0.94c-1.97,0.01-3.84,0.13-5.63,0.63l0,0c-0.78,0.23-1.43,0.58-1.99,0.97
		c-1.04,0.74-1.8,1.6-2.53,2.54c-1.26,1.64-2.4,3.55-3.6,5.55c-1.79,2.99-3.72,6.16-5.74,8.37c-1,1.11-2.02,1.96-2.96,2.5
		c-0.95,0.54-1.79,0.78-2.71,0.78c-0.97,0-2.14-0.27-3.71-1.2c-6.78-4.04-14.11-5.52-20.78-5.52c-4.4,0-8.53,0.64-12.12,1.65
		c-3.59,1.02-6.63,2.38-8.95,4.02l2.02,2.86l3.39-0.86c-0.48-1.88-0.68-3.57-0.68-5.13c0.01-2.96,0.72-5.44,1.97-7.8
		c1.87-3.52,5.08-6.72,8.84-9.76c3.75-3.05,7.98-5.92,11.72-9.08c1.66-1.41,3.06-3.11,4.28-4.97c2.12-3.26,3.71-7.05,4.97-10.92
		c1.88-5.8,3.01-11.8,3.68-16.39c0.67-4.59,0.88-7.75,0.89-7.82l0.24-3.6l-3.61-0.13c-1.1-0.04-2.16-0.06-3.18-0.06
		c-5.05,0-9.28,0.47-12.86,1.35c-3.13,0.77-5.77,1.87-7.97,3.24c-1.93,1.2-3.52,2.62-4.78,4.16c-2.23,2.7-3.44,5.72-4.19,8.55
		c-0.56,2.13-0.88,4.18-1.15,6.03c-0.2,1.39-0.39,2.66-0.6,3.75c-0.16,0.82-0.34,1.52-0.55,2.09c-0.31,0.86-0.63,1.36-0.93,1.65
		c-0.15,0.15-0.31,0.26-0.53,0.37c-0.22,0.11-0.52,0.21-0.94,0.29l0.62,3.44l0.5-3.46c-2.2-0.31-4.23-0.46-6.11-0.46
		c-3.54,0-6.55,0.51-9.08,1.3c-3.81,1.18-6.53,3-8.4,4.36c-0.93,0.68-1.66,1.23-2.11,1.5c-0.22,0.14-0.36,0.2-0.37,0.2l0.09,0.24
		l-0.07-0.24l-0.02,0.01l0.09,0.24l-0.07-0.24l0.35,1.16v-1.21c-0.18,0-0.31,0.03-0.35,0.04l0.35,1.16v-1.21v1.66l0.48-1.59
		c-0.15-0.05-0.33-0.07-0.48-0.07v1.66l0.48-1.59l-0.33,1.07l0.72-0.88c-0.01-0.01-0.16-0.12-0.39-0.19l-0.33,1.07l0.72-0.88
		l-0.02,0.02l0.02-0.02l0,0l-0.02,0.02l0.02-0.02c-0.01-0.01-0.1-0.1-0.24-0.28l-2.8,2.11l3.28-1.22c-0.61-1.66-0.87-3.23-0.87-4.77
		c0-2.81,0.88-5.58,2.34-8.24c2.18-3.98,5.66-7.57,8.59-10.08c1.47-1.26,2.79-2.25,3.73-2.93c0.47-0.34,0.85-0.59,1.1-0.76
		c0.13-0.08,0.22-0.14,0.28-0.18l0.06-0.04l0.01-0.01l-0.53-0.85l0.52,0.85l0,0l-0.53-0.85l0.52,0.85l2.14-1.32l-0.57-2.45
		c-1.14-4.87-1.63-9.24-1.63-13.15c0-6.62,1.38-11.94,3.4-16.29c3.04-6.51,7.61-10.87,11.46-13.62c1.92-1.37,3.65-2.33,4.87-2.93
		c0.61-0.3,1.1-0.52,1.41-0.65c0.16-0.07,0.28-0.11,0.35-0.14l0.07-0.03l0.01,0l-0.63-1.73l0.62,1.73l0.01,0l-0.63-1.73l0.62,1.73
		c1.82-0.65,2.77-2.65,2.12-4.47C84.16,286.9,82.16,285.95,80.34,286.6L80.34,286.6z"/>
	<path class="st4" d="M112.31,152.99c-0.13-0.09-4.19-3.06-10.6-6.05c-6.41-2.98-15.19-6.02-24.84-6.03
		c-6.57-0.01-13.58,1.45-20.24,5.37c-6.66,3.91-12.9,10.22-18.13,19.6l3.06,1.71l-3.01-1.79c-5.1,8.55-10.59,13.22-15.49,15.84
		c-4.91,2.61-9.32,3.19-12.33,3.19c-1.28,0-2.29-0.11-2.96-0.21c-0.33-0.05-0.58-0.1-0.73-0.13l-0.15-0.03l-0.02,0l-0.46,1.78
		l0.48-1.77l-0.02-0.01l-0.46,1.78l0.48-1.77l-5.54-1.5l1.21,5.61c0.06,0.23,1.38,6.47,5.49,12.98c2.06,3.25,4.84,6.59,8.62,9.16
		c3.76,2.58,8.56,4.32,14.21,4.31c4.11,0,8.64-0.9,13.61-2.88c4.36-1.74,7.9-2.42,10.77-2.41c1.96,0,3.61,0.31,5.07,0.82
		c2.55,0.91,4.6,2.49,6.44,4.61c2.75,3.16,4.83,7.49,6.72,11.53c0.95,2.03,1.87,3.98,2.91,5.74c0.52,0.88,1.08,1.72,1.72,2.49
		c0.65,0.78,1.39,1.5,2.31,2.1l0,0l0.12,0.08l1.02-1.31l-1.31,0.99c0.21,0.27,0.3,0.32,0.3,0.32l1.02-1.31l-1.31,0.99l2.27-1.7
		l-2.62,1.07c0.12,0.3,0.26,0.5,0.36,0.63l2.27-1.7l-2.62,1.07l2.91-1.19l-3.14,0c0,0.48,0.11,0.89,0.23,1.19l2.91-1.19l-3.14,0
		h3.22l-2.88-1.43c-0.21,0.41-0.34,0.95-0.34,1.43h3.22l-2.88-1.43l2.79,1.39l-2.12-2.28c-0.21,0.2-0.46,0.49-0.67,0.9l2.79,1.39
		l-2.12-2.28l1.69,1.82l-0.91-2.33c-0.1,0.05-0.35,0.12-0.78,0.51l1.69,1.82l-0.91-2.33l0.31,0.78l-0.23-0.81l-0.07,0.03l0.31,0.78
		l-0.23-0.81c-0.01,0.01-0.33,0.08-0.78,0.13c-0.86,0.11-2.24,0.2-3.9,0.3c-2.93,0.19-6.78,0.43-11.02,1.05
		c-6.36,0.94-13.64,2.69-20.16,6.54c-3.25,1.93-6.31,4.39-8.89,7.53c-2.58,3.14-4.65,6.94-5.96,11.45l3.36,0.98l-3.18-1.45
		c-0.54,1.19-1.3,2.29-2.25,3.32c-1.65,1.8-3.91,3.36-6.4,4.62c-3.74,1.91-7.98,3.14-11.24,3.86c-1.63,0.36-3.02,0.6-3.99,0.75
		c-0.48,0.07-0.86,0.12-1.11,0.15c-0.13,0.02-0.22,0.03-0.28,0.03l-0.06,0.01l-0.01,0l0.09,0.9l-0.09-0.9l0,0l0.09,0.9l-0.09-0.9
		L0,271.92l3.03,4.79c0.16,0.24,2.43,3.81,7.19,7.41c2.38,1.8,5.39,3.6,9.04,4.95c3.65,1.35,7.96,2.24,12.87,2.24
		c5.72,0,12.23-1.21,19.51-4.2l0.03-0.01l0.03-0.01c2.28-0.98,4.71-1.4,7.22-1.4c5-0.01,10.25,1.72,14.17,3.53
		c1.96,0.9,3.6,1.8,4.73,2.48c0.56,0.34,1,0.61,1.29,0.8c0.14,0.09,0.25,0.17,0.32,0.21l0.07,0.05l0.01,0.01l0.56-0.8l-0.56,0.8l0,0
		l0.56-0.8l-0.56,0.8c1.58,1.11,3.77,0.72,4.87-0.87c1.11-1.58,0.72-3.77-0.87-4.87c-0.12-0.08-3.03-2.11-7.51-4.16
		c-4.48-2.04-10.53-4.16-17.09-4.17c-3.28,0-6.69,0.55-9.99,1.97l1.39,3.21l-1.33-3.24c-6.54,2.68-12.12,3.67-16.85,3.67
		c-4.06,0-7.51-0.73-10.44-1.81c-4.39-1.62-7.62-4.06-9.75-6.09c-1.06-1.01-1.84-1.92-2.34-2.55c-0.25-0.32-0.43-0.56-0.54-0.72
		l-0.11-0.16l-0.02-0.03l-1.15,0.75l1.16-0.73l-0.01-0.01l-1.15,0.75l1.16-0.73l-2.96,1.87l0.35,3.48
		c0.16-0.02,5.97-0.59,12.71-2.85c3.37-1.14,6.99-2.69,10.27-4.91c1.64-1.11,3.2-2.39,4.58-3.89c1.38-1.49,2.58-3.21,3.47-5.15
		l0.11-0.23l0.07-0.24c0.93-3.19,2.29-5.83,3.95-8.07c2.91-3.91,6.82-6.66,11.22-8.63c6.59-2.96,14.2-4.04,20.21-4.53
		c3.02-0.25,5.61-0.36,7.61-0.54c0.5-0.04,0.97-0.09,1.42-0.15c0.34-0.05,0.66-0.1,0.99-0.17c0.25-0.05,0.5-0.12,0.78-0.21
		c0.41-0.15,0.89-0.31,1.53-0.81c0.31-0.25,0.67-0.61,0.96-1.14c0.29-0.51,0.48-1.2,0.48-1.84c0-0.76-0.22-1.38-0.46-1.82
		c-0.36-0.66-0.73-1.01-1.05-1.3c-0.32-0.29-0.63-0.5-0.95-0.71l0,0c-0.21-0.12-0.7-0.58-1.25-1.41c-0.99-1.44-2.13-3.85-3.41-6.59
		c-1.95-4.12-4.28-9.04-8.01-13.14c-1.87-2.05-4.12-3.88-6.85-5.19c-2.72-1.31-5.89-2.07-9.43-2.07c-3.97,0-8.38,0.92-13.36,2.91
		c-4.29,1.71-7.93,2.38-11.02,2.38c-4.25-0.01-7.51-1.23-10.28-3.09c-2.06-1.4-3.82-3.2-5.28-5.14c-2.19-2.91-3.71-6.14-4.65-8.62
		c-0.47-1.24-0.8-2.29-1-3.01c-0.1-0.36-0.17-0.64-0.22-0.82c-0.02-0.09-0.04-0.16-0.05-0.2l-0.01-0.04l0,0l-1.88,0.41l1.88-0.4
		l0-0.01l-1.88,0.41l1.88-0.4l-3.42,0.74l-0.91,3.38c0.23,0.06,2.33,0.61,5.66,0.61c3.9,0,9.53-0.77,15.62-4.01
		c6.09-3.24,12.57-8.94,18.22-18.43l0.02-0.04l0.02-0.04c4.75-8.49,10.1-13.76,15.57-16.98c5.47-3.21,11.12-4.4,16.69-4.41
		c8.15-0.01,16.06,2.65,21.88,5.38c2.91,1.36,5.3,2.72,6.94,3.73c0.82,0.51,1.46,0.92,1.88,1.21c0.21,0.14,0.37,0.25,0.47,0.32
		l0.11,0.08l0.02,0.02l0.14-0.19l-0.14,0.19l0,0l0.14-0.19l-0.14,0.19c1.56,1.14,3.75,0.81,4.89-0.75
		C114.21,156.33,113.87,154.14,112.31,152.99L112.31,152.99z"/>
	<path class="st4" d="M115.91,111.35c-0.17-0.03-7.25-1.55-17.35-1.55c-7.27,0-16.1,0.78-25.08,3.53
		c-8.96,2.75-18.09,7.5-25.69,15.44l-10.37,10.84l14.1-5.14l0,0c0.22-0.09,7.43-2.6,16.73-2.59c6.34,0,13.59,1.15,20.43,4.83
		c3.42,1.85,6.76,4.33,9.88,7.67c3.12,3.35,6.02,7.56,8.52,12.9c0.82,1.75,2.9,2.5,4.65,1.68c1.75-0.82,2.5-2.9,1.68-4.65
		c-2.78-5.94-6.09-10.79-9.74-14.7c-5.46-5.87-11.67-9.6-17.82-11.8c-6.15-2.21-12.24-2.94-17.61-2.94
		c-10.87,0.01-18.89,2.93-19.12,3.01l1.2,3.29l2.53,2.42c6.61-6.91,14.58-11.1,22.68-13.59c8.09-2.48,16.26-3.23,23.02-3.22
		c4.7,0,8.72,0.36,11.53,0.71c1.41,0.18,2.52,0.35,3.26,0.48c0.37,0.06,0.66,0.12,0.84,0.15c0.09,0.02,0.16,0.03,0.2,0.04l0.04,0.01
		l0.01,0l0.26-1.23l-0.26,1.23l0,0l0.26-1.23l-0.26,1.23c1.89,0.41,3.75-0.8,4.16-2.69C119,113.62,117.8,111.76,115.91,111.35
		L115.91,111.35z"/>
	<path class="st4" d="M196.87,78.81c-0.06-0.24-1.73-9.03-7.35-18.1c-2.82-4.53-6.66-9.15-11.88-12.68
		c-5.21-3.53-11.83-5.9-19.77-5.88c-7.31,0-15.7,1.96-25.31,6.53l1.5,3.16l-1.24-3.27c-4.82,1.84-8.39,2.52-10.78,2.51
		c-1.47,0-2.48-0.24-3.17-0.55c-0.52-0.23-0.88-0.5-1.19-0.81c-0.45-0.47-0.81-1.1-1.08-1.99c-0.26-0.88-0.39-2-0.39-3.21
		c-0.01-2.31,0.48-4.92,1-6.97c0.26-1.03,0.51-1.92,0.72-2.61c0.1-0.35,0.19-0.64,0.26-0.9c0.04-0.14,0.07-0.26,0.11-0.42
		c0.02-0.08,0.04-0.17,0.06-0.3c0.02-0.14,0.05-0.29,0.05-0.63v-6.82l-5.54,3.98c-0.24,0.17-4.51,3.27-8.79,9.6
		c-2.14,3.16-4.27,7.14-5.87,11.95c-1.6,4.8-2.66,10.44-2.66,16.87c0,12.97,4.3,29.1,16.68,48.41c1.04,1.63,3.21,2.1,4.84,1.06
		c1.63-1.04,2.1-3.21,1.06-4.84c-11.82-18.46-15.57-33.23-15.57-44.63c0-5.67,0.92-10.53,2.3-14.66c2.06-6.2,5.15-10.76,7.7-13.77
		c1.28-1.5,2.42-2.61,3.22-3.32c0.4-0.36,0.72-0.62,0.92-0.78c0.1-0.08,0.18-0.14,0.22-0.17l0.04-0.03l0,0l-1.27-1.74l1.26,1.75
		l0.01-0.01l-1.27-1.74l1.26,1.75l-2.04-2.84l-3.5,0h3.13l-3.09-0.51c-0.01,0.09-0.04,0.2-0.04,0.51h3.13l-3.09-0.51l2,0.33
		l-1.97-0.45l-0.02,0.12l2,0.33l-1.97-0.45l0.3,0.07l-0.3-0.07l0,0l0.3,0.07l-0.3-0.07c-0.01,0.02-0.06,0.22-0.13,0.48
		c-0.27,0.92-0.8,2.67-1.26,4.78c-0.46,2.12-0.86,4.62-0.87,7.23c0,1.51,0.14,3.05,0.52,4.6c0.29,1.15,0.72,2.31,1.36,3.4
		c0.95,1.64,2.42,3.13,4.31,4.1c1.89,0.98,4.13,1.45,6.64,1.45c3.64-0.01,7.93-0.95,13.27-2.97l0.13-0.05l0.13-0.06
		c8.9-4.23,16.26-5.85,22.31-5.85c6.58,0.01,11.67,1.87,15.86,4.69c3.13,2.11,5.73,4.79,7.87,7.66c3.21,4.3,5.34,9.02,6.65,12.64
		c0.65,1.81,1.1,3.34,1.38,4.41c0.14,0.53,0.24,0.95,0.3,1.22c0.03,0.14,0.05,0.24,0.07,0.3l0.01,0.07l0,0.01l1.31-0.26l-1.31,0.25
		l0,0l1.31-0.26l-1.31,0.25c0.37,1.9,2.2,3.14,4.1,2.78C195.99,82.54,197.23,80.71,196.87,78.81L196.87,78.81z"/>
	<path class="st4" d="M240.84,53.31c-0.09-0.11-7.02-9.47-17.48-18.94c-5.24-4.74-11.36-9.51-18.04-13.15
		c-3.34-1.82-6.82-3.36-10.41-4.45c-3.59-1.09-7.3-1.73-11.06-1.74c-5.92-0.01-11.97,1.64-17.57,5.45l-4.55,3.09l4.72,2.82
		l1.09-1.83l-1.1,1.83l0.01,0l1.09-1.83l-1.1,1.83l0.06,0.04c0.66,0.41,6.66,4.29,12.4,11.95c2.87,3.83,5.69,8.61,7.79,14.39
		c2.1,5.78,3.49,12.58,3.49,20.51c0,1.9-0.08,3.87-0.25,5.91c-0.16,1.93,1.27,3.62,3.2,3.78c1.93,0.16,3.62-1.27,3.78-3.2
		c0.19-2.23,0.28-4.4,0.28-6.5c0-9.11-1.67-17.01-4.2-23.68c-3.79-10.02-9.47-17.28-14.21-22.04c-4.74-4.77-8.55-7.05-8.74-7.17
		l-1.79,3.01l1.97,2.9c4.48-3.03,8.98-4.23,13.64-4.25c2.96,0,5.98,0.51,9.02,1.43c5.32,1.61,10.7,4.52,15.71,8.01
		c7.53,5.24,14.24,11.77,19.02,16.98c2.39,2.61,4.31,4.88,5.62,6.49c0.65,0.81,1.16,1.45,1.49,1.88c0.17,0.22,0.29,0.38,0.38,0.49
		l0.09,0.12l0.02,0.03l0,0c1.15,1.55,3.34,1.88,4.9,0.73C241.67,57.06,241.99,54.86,240.84,53.31L240.84,53.31z"/>
	<path class="st4" d="M271.9,58.23l0-0.02c0.01-0.45,0.36-10.23,3.04-21.2c1.33-5.48,3.25-11.26,5.92-16.28
		c1.33-2.51,2.85-4.83,4.55-6.85c1.7-2.02,3.59-3.73,5.67-5.06l-1.88-2.95l1.76,3.03c0.89-0.52,1.6-0.99,2.25-1.55
		c0.33-0.29,0.64-0.6,0.98-1.08c0.16-0.24,0.33-0.53,0.48-0.9c0.14-0.37,0.27-0.85,0.27-1.42c0-0.43-0.08-0.9-0.25-1.34
		c-0.29-0.79-0.84-1.38-1.32-1.73c-0.36-0.27-0.7-0.42-0.99-0.53c-0.44-0.16-0.8-0.23-1.13-0.28C290.92,0.01,290.62,0,290.33,0
		c-0.79,0-1.57,0.1-2.45,0.25c-1.64,0.29-3.6,0.8-5.86,1.55c-3.95,1.31-8.8,3.34-13.91,6.13c-7.66,4.19-15.9,10.08-22.38,17.93
		c-3.23,3.92-6.01,8.34-8,13.27c-1.99,4.93-3.16,10.36-3.2,16.24c-0.01,1.93,1.54,3.51,3.48,3.52c1.93,0.01,3.51-1.54,3.52-3.48
		c0.06-8.07,2.6-15.01,6.61-21.07c3-4.54,6.84-8.55,11.02-12c6.26-5.18,13.28-9.08,19.19-11.64c2.95-1.28,5.63-2.23,7.77-2.85
		c1.07-0.31,2-0.53,2.73-0.67c0.73-0.14,1.29-0.19,1.48-0.19l0.05,0l0.06-0.98l-0.2,0.95C290.34,7,290.38,7,290.38,7l0.06-0.98
		l-0.2,0.95l0.46-2.22l-0.85,2.1c0.18,0.07,0.3,0.1,0.39,0.12l0.46-2.22l-0.85,2.1l1.11-2.77l-2.26,1.94
		c0.45,0.52,0.88,0.73,1.15,0.83l1.11-2.77l-2.26,1.94l2.44-2.09l-3.01,1.12c0.14,0.37,0.35,0.71,0.57,0.97l2.44-2.09l-3.01,1.12
		l3.01-1.12l-3.21,0c0,0.35,0.06,0.75,0.2,1.12l3.01-1.12l-3.21,0h3.06l-2.86-1.11c-0.1,0.26-0.2,0.63-0.2,1.11h3.06l-2.86-1.11
		l2.19,0.85l-1.78-1.56c-0.06,0.08-0.23,0.25-0.41,0.71l2.19,0.85l-1.78-1.56l0.65,0.57l-0.61-0.62l-0.04,0.05l0.65,0.57l-0.61-0.62
		l0.01,0.01l-0.01-0.01l0,0l0.01,0.01l-0.01-0.01c-0.03,0.04-0.46,0.37-1.15,0.77l-0.06,0.04l-0.06,0.04
		c-2.81,1.79-5.24,4.04-7.35,6.56c-3.69,4.41-6.4,9.65-8.46,15c-3.09,8.03-4.71,16.35-5.59,22.71c-0.88,6.36-1,10.75-1,10.84
		c-0.05,1.93,1.47,3.54,3.4,3.6C270.24,61.68,271.85,60.16,271.9,58.23L271.9,58.23z"/>
	<path class="st4" d="M321.97,74.81l0-0.02c-0.02-0.24-0.21-2.79-0.21-6.68c-0.01-6.91,0.61-18.1,3.69-28
		c1.53-4.95,3.66-9.55,6.5-13.16c1.42-1.81,3-3.37,4.78-4.65c1.78-1.28,3.76-2.28,6.02-2.96c1.95-0.59,3.41-1.14,4.63-1.8
		c0.61-0.34,1.17-0.7,1.75-1.29c0.29-0.3,0.58-0.66,0.84-1.16c0.25-0.49,0.46-1.15,0.46-1.88c0-0.45-0.08-0.91-0.23-1.33
		c-0.28-0.78-0.74-1.34-1.15-1.72c-0.37-0.33-0.72-0.56-1.06-0.73c-0.58-0.3-1.12-0.48-1.67-0.62c-0.83-0.21-1.7-0.34-2.68-0.43
		c-0.98-0.09-2.05-0.13-3.23-0.13c-4.67,0-11.02,0.67-18.19,2.24c-10.73,2.36-23.24,6.74-34.04,14.18
		c-5.4,3.72-10.37,8.23-14.42,13.65c-4.04,5.42-7.14,11.76-8.77,19.05c-0.42,1.89,0.77,3.76,2.65,4.18
		c1.89,0.42,3.76-0.77,4.18-2.65c1.88-8.38,5.93-15.2,11.34-20.86c8.09-8.49,19.28-14.26,30.07-17.83
		c5.39-1.79,10.67-3.03,15.36-3.82c4.69-0.79,8.81-1.13,11.82-1.13c0.93,0,1.76,0.03,2.44,0.09c0.51,0.04,0.95,0.1,1.28,0.16
		c0.25,0.04,0.44,0.09,0.55,0.12l0.09,0.03l0.01,0.01l0.11-0.27l-0.12,0.26l0.02,0.01l0.11-0.27l-0.12,0.26l0.85-1.77l-1.44,1.31
		c0.33,0.36,0.54,0.44,0.59,0.47l0.85-1.77l-1.44,1.31l2.09-1.89l-2.59,1.11c0.15,0.35,0.34,0.6,0.5,0.78l2.09-1.89l-2.59,1.11
		l2.75-1.18h-2.99c0,0.41,0.09,0.84,0.24,1.18l2.75-1.18h-2.99h2.87l-2.56-1.31c-0.15,0.3-0.31,0.76-0.31,1.31h2.87l-2.56-1.31
		l1.6,0.82l-1.12-1.45c0,0.01-0.2,0.11-0.48,0.64l1.6,0.82l-1.12-1.45l-0.06,0.04c-0.15,0.09-0.53,0.3-1.11,0.53
		c-0.58,0.23-1.35,0.51-2.31,0.79c-3.01,0.9-5.71,2.27-8.09,3.98c-4.17,3-7.33,7.01-9.74,11.43c-3.61,6.65-5.6,14.25-6.74,21.41
		c-1.13,7.15-1.4,13.85-1.4,18.66c0,4.39,0.22,7.19,0.23,7.26c0.16,1.93,1.84,3.36,3.77,3.21
		C320.69,78.43,322.12,76.74,321.97,74.81L321.97,74.81z"/>
	<path class="st4" d="M401.14,106.38c0.06-0.11,3.4-5.96,6.76-14.78c3.35-8.83,6.74-20.61,6.76-32.75c0-6.12-0.88-12.35-3.14-18.28
		c-2.26-5.93-5.94-11.53-11.38-16.27l-6.51-5.67l0.72,8.61l1.52-0.13l-1.52,0.12l0,0.01l1.52-0.13l-1.52,0.12
		c0,0.01,0.05,0.62,0.05,1.6c0,1.07-0.06,2.59-0.29,4.2c-0.17,1.21-0.44,2.47-0.84,3.64c-0.59,1.76-1.44,3.25-2.5,4.2
		c-0.53,0.48-1.12,0.85-1.83,1.13c-0.72,0.27-1.58,0.45-2.7,0.45c-0.79,0-1.7-0.09-2.75-0.31c-1.75-0.37-3.88-1.02-6.22-1.8
		c-3.53-1.17-7.57-2.64-11.89-3.83c-4.33-1.19-8.96-2.11-13.74-2.11c-3.57,0-7.24,0.52-10.82,1.86c-2.69,1-5.33,2.46-7.82,4.45
		c-3.75,2.98-7.17,7.12-10.17,12.62c-3,5.5-5.59,12.37-7.72,20.94c-0.47,1.88,0.68,3.77,2.55,4.24c1.88,0.47,3.77-0.68,4.24-2.55
		c1.8-7.22,3.91-13.02,6.21-17.61c1.72-3.45,3.55-6.22,5.43-8.43c2.82-3.32,5.73-5.39,8.73-6.7c3-1.3,6.12-1.82,9.38-1.83
		c5.16-0.01,10.62,1.37,15.84,3.04c2.61,0.83,5.15,1.73,7.59,2.54c2.44,0.81,4.76,1.54,7,2.01c1.47,0.31,2.86,0.46,4.19,0.46
		c1.67,0,3.23-0.24,4.65-0.72c2.5-0.82,4.51-2.35,5.96-4.12c1.09-1.33,1.9-2.78,2.51-4.24c0.92-2.2,1.41-4.43,1.69-6.43
		c0.28-2.01,0.35-3.8,0.35-5.1c0-1.28-0.07-2.1-0.07-2.18l-3.49,0.29l-2.3,2.64c4.56,3.98,7.54,8.54,9.45,13.49
		c1.9,4.95,2.68,10.32,2.68,15.78c0.01,10.82-3.12,21.93-6.3,30.26c-1.59,4.17-3.17,7.65-4.36,10.07c-0.59,1.21-1.08,2.16-1.42,2.79
		c-0.17,0.32-0.3,0.56-0.39,0.72l-0.1,0.17l-0.02,0.04l0,0.01c-0.96,1.68-0.38,3.82,1.3,4.78
		C398.05,108.65,400.19,108.06,401.14,106.38L401.14,106.38z"/>
	<path class="st4" d="M439.5,225.33l0.01-0.01c0.18-0.33,3.86-7.14,8.93-13.94c2.52-3.4,5.4-6.8,8.24-9.35
		c1.42-1.28,2.83-2.34,4.14-3.09c1.31-0.76,2.5-1.2,3.49-1.35c0.65-0.1,1.45-0.15,2.36-0.15c2.39,0,5.53,0.36,8.99,0.75
		c3.47,0.39,7.29,0.79,11.22,0.79c3.02,0,6.11-0.24,9.16-0.95c2.29-0.53,4.55-1.33,6.71-2.5c3.24-1.75,6.22-4.35,8.61-7.9
		c2.39-3.56,4.21-8.03,5.37-13.58l0.8-3.83l-3.89-0.37l-0.12,1.3l0.13-1.3l0,0l-0.12,1.3l0.13-1.3c-0.04,0-7.01-0.7-15.24-3.62
		c-4.12-1.45-8.54-3.46-12.57-6.15c-4.04-2.7-7.67-6.06-10.34-10.25c-1.56-2.45-3.63-4.43-5.98-5.97c-3.53-2.33-7.68-3.73-12.08-4.6
		c-4.41-0.86-9.1-1.17-13.78-1.17c-7.56,0-15.12,0.82-21.3,1.63c-3.09,0.4-5.83,0.81-8.02,1.1c-1.09,0.15-2.05,0.27-2.83,0.35
		c-0.77,0.08-1.38,0.12-1.67,0.12l-0.15,0l-0.01,0l-0.12,1.52l0.42-1.46c-0.23-0.06-0.29-0.06-0.29-0.06l-0.12,1.52l0.42-1.46
		L409.2,144l1.25-2.47c-0.22-0.11-0.37-0.16-0.49-0.19L409.2,144l1.25-2.47l-1.42,2.82l2.23-2.23c-0.31-0.31-0.59-0.48-0.81-0.59
		l-1.42,2.82l2.23-2.23l-2.06,2.06l2.83-0.76c-0.08-0.28-0.24-0.77-0.77-1.3l-2.06,2.06l2.83-0.76l-1.79,0.48h1.86
		c0-0.05,0-0.19-0.07-0.48l-1.79,0.48h1.86h-0.34l0.34,0.03l0-0.03h-0.34l0.34,0.03c0-0.02,0.03-0.22,0.1-0.51
		c0.14-0.55,0.46-1.41,0.96-2.43c0.88-1.79,2.31-4.06,4.37-6.43c3.1-3.56,7.58-7.34,13.78-10.24c6.2-2.9,14.11-4.93,24.17-4.93
		c1.96,0,3.99,0.08,6.12,0.24l9.59,0.74l-6.87-6.73c-0.16-0.15-4.46-4.35-12-8.56c-7.54-4.2-18.38-8.44-31.51-8.44
		c-7.38,0-15.47,1.35-23.99,4.76c-1.79,0.72-2.67,2.75-1.95,4.55c0.72,1.79,2.75,2.67,4.55,1.95c7.7-3.08,14.85-4.26,21.39-4.26
		c11.6,0,21.3,3.76,28.11,7.56c3.4,1.9,6.07,3.79,7.87,5.2c0.9,0.7,1.58,1.28,2.03,1.68c0.22,0.2,0.39,0.35,0.49,0.45l0.11,0.1
		l0.02,0.02l0,0l1.46-1.5l-1.46,1.49l0,0l1.46-1.5l-1.46,1.49l2.45-2.5l0.27-3.49c-2.3-0.18-4.51-0.26-6.66-0.26
		c-9.09,0-16.8,1.53-23.23,3.95c-9.65,3.63-16.38,9.23-20.69,14.44c-2.16,2.61-3.72,5.12-4.77,7.3c-0.53,1.09-0.93,2.11-1.21,3.05
		c-0.14,0.47-0.26,0.92-0.34,1.38c-0.08,0.45-0.14,0.9-0.14,1.4c0,0.39,0.03,0.81,0.17,1.33c0.14,0.51,0.4,1.18,1.04,1.84
		c0.51,0.5,0.98,0.72,1.33,0.87c0.54,0.21,0.91,0.26,1.25,0.3c0.34,0.04,0.63,0.05,0.93,0.05c0.74,0,1.5-0.06,2.4-0.16
		c1.56-0.16,3.5-0.44,5.76-0.75c6.75-0.95,16.39-2.3,25.66-2.29c5.82,0,11.48,0.54,16.05,1.93c2.29,0.69,4.3,1.59,5.95,2.68
		c1.66,1.1,2.96,2.37,3.93,3.9c3.33,5.22,7.77,9.26,12.47,12.38c7.05,4.68,14.72,7.34,20.65,8.88c5.93,1.54,10.14,1.94,10.27,1.96
		l0.33-3.48l-3.43-0.71c-0.9,4.32-2.2,7.63-3.73,10.17c-1.15,1.91-2.43,3.39-3.81,4.57c-2.07,1.77-4.4,2.9-7.01,3.62
		c-2.6,0.72-5.47,0.99-8.45,0.99c-3.44,0-7.01-0.36-10.44-0.75c-3.44-0.38-6.73-0.79-9.77-0.79c-1.17,0-2.3,0.06-3.42,0.23
		c-2.14,0.33-4.14,1.16-6.03,2.26c-3.29,1.93-6.31,4.71-9.1,7.77c-4.18,4.6-7.84,9.89-10.49,14.06c-2.65,4.17-4.28,7.21-4.31,7.27
		c-0.91,1.7-0.27,3.83,1.44,4.74C436.47,227.68,438.59,227.03,439.5,225.33L439.5,225.33z"/>
	<path class="st4" d="M419.75,325.13l0.06,0c0.69,0.05,7.27,0.59,13.65,2.08c3.18,0.74,6.31,1.74,8.49,2.89
		c1.09,0.57,1.92,1.17,2.41,1.66c0.25,0.25,0.41,0.47,0.5,0.64c0.1,0.17,0.14,0.3,0.16,0.41c0.26,1.36,0.76,2.68,1.42,4
		c1.17,2.3,2.87,4.61,5,6.86c3.21,3.37,7.41,6.58,12.35,8.99c4.94,2.41,10.62,4.02,16.71,4.03c2.68,0,5.43-0.31,8.2-1.01l0.61-0.15
		l0.52-0.36c0.87-0.59,1.62-1.44,2.07-2.4c0.46-0.95,0.63-1.95,0.63-2.86c-0.01-1.48-0.39-2.78-0.9-4.03
		c-0.91-2.19-2.29-4.3-3.86-6.4c-2.35-3.12-5.13-6.14-7.34-8.4c-2.21-2.27-3.85-3.77-3.89-3.8l-2.37,2.58l3.49-0.23
		c-0.01-0.07-0.22-3.39-0.97-8.35c-0.56-3.72-1.41-8.37-2.71-13.29c-1.95-7.38-4.84-15.37-9.43-21.8c-2.3-3.21-5.04-6.05-8.38-8.12
		c-3.33-2.07-7.26-3.3-11.6-3.3c-2.02,0-4.11,0.26-6.28,0.79l0.83,3.4l0.18-3.5c-0.23-0.01-0.37-0.03-0.42-0.04l0,0.02l0.01-0.02
		l0,0l0,0.02l0.01-0.02l-0.56,1.87l1.35-1.35c-0.44-0.43-0.74-0.5-0.79-0.52l-0.56,1.87l1.35-1.35l-1.94,1.94l2.53-1.06
		c-0.15-0.36-0.37-0.67-0.59-0.88l-1.94,1.94l2.53-1.06l-2.56,1.07h2.78c0-0.32-0.07-0.72-0.22-1.07l-2.56,1.07h2.78h-2.47
		l2.36,0.75c0.06-0.17,0.11-0.43,0.11-0.75h-2.47l2.36,0.75l-1.67-0.53l1.53,0.86c0.03-0.06,0.09-0.16,0.14-0.33l-1.67-0.53
		l1.53,0.86l-0.76-0.43l0.73,0.49l0.03-0.06l-0.76-0.43l0.73,0.49l-0.27-0.18l0.26,0.19l0.01-0.01l-0.27-0.18l0.26,0.19l0.01-0.01
		c0.07-0.09,0.45-0.47,1.04-0.9c1.04-0.77,2.72-1.75,4.78-2.73c3.1-1.48,7.07-2.97,11.32-4.08c4.25-1.11,8.79-1.82,13-1.82
		c3.17,0,6.15,0.41,8.7,1.28c6.67,2.29,12.7,3.28,17.98,3.28c5.32,0,9.88-1.01,13.53-2.79c1.82-0.89,3.42-1.98,4.75-3.25
		c1.33-1.27,2.39-2.73,3.1-4.34c0.34-0.76,0.54-1.62,0.54-2.5c0-0.94-0.24-1.86-0.62-2.62c-0.35-0.72-0.81-1.31-1.29-1.82
		c-0.91-0.95-1.93-1.64-3.03-2.27c-1.92-1.09-4.14-1.99-6.47-2.9c-3.49-1.35-7.24-2.72-10.16-4.25c-1.46-0.76-2.7-1.56-3.58-2.33
		c-0.89-0.77-1.38-1.47-1.59-2.03c-1-2.59-2.78-5.23-5.23-7.89c-3.68-3.97-8.93-7.95-15.53-10.97c-6.59-3.02-14.55-5.07-23.54-5.07
		c-3.89,0-7.96,0.38-12.19,1.23c-1.9,0.38-3.12,2.22-2.75,4.12c0.38,1.9,2.22,3.12,4.12,2.75c3.78-0.76,7.4-1.09,10.82-1.09
		c10.56,0,19.41,3.2,25.96,7.31c3.27,2.05,5.96,4.33,7.96,6.49c2,2.15,3.3,4.23,3.83,5.64c0.66,1.71,1.73,3.12,2.95,4.29
		c2.16,2.05,4.82,3.5,7.59,4.79c2.08,0.96,4.23,1.8,6.28,2.59c1.53,0.59,3.01,1.15,4.33,1.69c1.98,0.8,3.64,1.61,4.53,2.24
		c0.45,0.31,0.68,0.56,0.71,0.61l0,0.01l0.53-0.34l-0.59,0.19c0.03,0.09,0.06,0.15,0.06,0.15l0.53-0.34l-0.59,0.19l1.1-0.35l-1.15,0
		c0,0.12,0.02,0.26,0.05,0.35l1.1-0.35l-1.15,0h0.78l-0.73-0.32c0,0-0.05,0.14-0.05,0.32h0.78l-0.73-0.32
		c-0.3,0.67-0.79,1.39-1.53,2.1c-1.11,1.07-2.79,2.1-5.05,2.86c-2.25,0.76-5.07,1.24-8.39,1.24c-4.4,0-9.68-0.83-15.71-2.9
		c-3.49-1.19-7.21-1.66-10.97-1.66c-8.42,0.01-17.07,2.32-23.81,5.04c-3.37,1.37-6.25,2.83-8.44,4.27c-1.1,0.73-2.03,1.44-2.83,2.26
		c-0.4,0.42-0.77,0.87-1.11,1.45c-0.17,0.29-0.32,0.62-0.45,1.02c-0.12,0.39-0.21,0.85-0.21,1.36c-0.01,0.79,0.26,1.72,0.76,2.41
		c0.36,0.52,0.81,0.91,1.23,1.18c0.64,0.41,1.23,0.61,1.79,0.74c0.56,0.13,1.11,0.2,1.68,0.23l0.51,0.03l0.5-0.12
		c1.67-0.41,3.19-0.59,4.61-0.59c2.7,0.01,5,0.64,7.13,1.79c1.86,1.01,3.58,2.43,5.18,4.21c2.79,3.11,5.15,7.32,7.01,11.91
		c2.81,6.87,4.53,14.54,5.52,20.44c0.49,2.95,0.81,5.46,1,7.23c0.1,0.88,0.16,1.58,0.2,2.05c0.02,0.23,0.03,0.41,0.04,0.53
		l0.01,0.13l0,0.03l0.09,1.4l1.03,0.95l0.03,0.03c0.38,0.35,4.02,3.75,7.47,7.72c1.72,1.98,3.4,4.1,4.56,5.96
		c0.58,0.93,1.04,1.79,1.31,2.47c0.28,0.68,0.36,1.18,0.35,1.3l0,0.03l0.39,0.04l-0.37-0.11l-0.02,0.07l0.39,0.04l-0.37-0.11
		l0.89,0.27l-0.75-0.55c-0.07,0.09-0.12,0.21-0.14,0.28l0.89,0.27l-0.75-0.55l0.61,0.44l-0.43-0.63c-0.03,0.02-0.11,0.09-0.18,0.18
		l0.61,0.44l-0.43-0.63l1.99,2.88l-0.85-3.4c-2.2,0.55-4.37,0.8-6.5,0.8c-3.69,0-7.27-0.75-10.6-2c-4.99-1.87-9.41-4.91-12.62-8.06
		c-1.6-1.57-2.9-3.17-3.82-4.61c-0.92-1.43-1.44-2.72-1.58-3.52c-0.18-0.96-0.54-1.86-1.01-2.66c-0.88-1.5-2.1-2.63-3.43-3.57
		c-2.34-1.64-5.13-2.77-8.07-3.7c-4.4-1.37-9.13-2.21-12.8-2.72c-3.67-0.51-6.28-0.7-6.34-0.7c-1.93-0.14-3.6,1.32-3.74,3.25
		C416.37,323.32,417.82,324.99,419.75,325.13L419.75,325.13z"/>
	<path class="st4" d="M382.85,382.05L382.85,382.05c0.03,0,0.12,0,0.27,0c1.22-0.01,6.32,0.12,11.43,1.61
		c2.56,0.74,5.1,1.81,7.17,3.27c2.08,1.46,3.68,3.24,4.65,5.56c0.68,1.63,1.67,3.05,2.87,4.19c1.81,1.72,4.02,2.79,6.33,3.43
		c2.31,0.64,4.76,0.88,7.25,0.89c5.84-0.01,12-1.32,17.12-2.79c2.56-0.74,4.84-1.51,6.67-2.21c0.92-0.35,1.72-0.68,2.4-0.97
		c0.69-0.3,1.23-0.56,1.72-0.84l-0.41-0.71l0.28,0.77l0.13-0.06l-0.41-0.71l0.28,0.77l-0.1-0.29l0.09,0.29l0.02-0.01l-0.1-0.29
		l0.09,0.29l0.02,0c0.05-0.01,0.18-0.03,0.39-0.03c0.51-0.01,1.4,0.12,2.41,0.37c1.53,0.36,3.35,0.96,5.08,1.49
		c0.87,0.27,1.72,0.52,2.56,0.72c0.84,0.2,1.65,0.36,2.62,0.37c0.38,0,0.79-0.03,1.27-0.13c0.36-0.08,0.75-0.21,1.17-0.43
		c0.62-0.32,1.3-0.91,1.71-1.65c0.42-0.74,0.56-1.53,0.56-2.17c0-0.42-0.03-0.8-0.08-1.23c-0.1-0.8-0.26-1.77-0.52-2.9
		c-0.9-3.93-2.82-9.85-6.46-15.39c-1.82-2.77-4.09-5.44-6.92-7.65c-2.82-2.21-6.23-3.93-10.17-4.72c-1.78-0.36-3.17-0.86-4.26-1.42
		c-0.95-0.5-1.69-1.05-2.28-1.64c-1.03-1.03-1.7-2.22-2.17-3.65c-0.71-2.13-0.87-4.77-0.92-7.39c-0.03-1.31-0.05-2.62-0.14-3.91
		c-0.11-1.29-0.26-2.58-0.8-3.93c-0.65-1.61-1.61-3.51-2.72-5.58c-1.66-3.08-3.64-6.46-5.22-9.09c-1.57-2.62-2.74-4.49-2.75-4.5
		c-1.02-1.64-3.18-2.14-4.82-1.11c-1.64,1.02-2.14,3.18-1.11,4.82c0,0,0.03,0.05,0.09,0.14c0.44,0.71,2.49,4.02,4.67,7.77
		c1.09,1.87,2.21,3.85,3.17,5.65c0.96,1.79,1.77,3.44,2.19,4.49c0.08,0.19,0.22,0.74,0.29,1.51c0.14,1.36,0.12,3.36,0.21,5.59
		c0.07,1.68,0.22,3.51,0.6,5.4c0.29,1.42,0.73,2.87,1.39,4.3c0.99,2.14,2.54,4.23,4.76,5.87c2.21,1.65,5.02,2.85,8.45,3.54
		c3.39,0.68,6.17,2.29,8.57,4.51c3.59,3.3,6.17,8.02,7.77,12.19c0.8,2.08,1.37,4.03,1.72,5.55c0.18,0.76,0.3,1.42,0.38,1.92
		c0.04,0.25,0.06,0.46,0.08,0.61l0.01,0.18l0,0.06h2.57l-2.31-1.11c-0.22,0.45-0.26,0.86-0.26,1.11h2.57l-2.31-1.11l2.54,1.22
		l-1.86-2.11c-0.27,0.23-0.52,0.56-0.68,0.89l2.54,1.22l-1.86-2.11l1.67,1.9l-0.65-2.46c-0.22,0.06-0.62,0.2-1.03,0.56l1.67,1.9
		l-0.65-2.46l0.33,1.25v-1.3c0,0-0.1-0.01-0.33,0.05l0.33,1.25v-1.3c0,0-0.2-0.01-0.49-0.07c-0.52-0.1-1.32-0.31-2.23-0.59
		c-1.38-0.42-3.02-0.96-4.7-1.43c-0.85-0.23-1.71-0.44-2.58-0.6c-0.87-0.16-1.75-0.27-2.67-0.27c-0.58,0-1.18,0.04-1.8,0.17
		c-0.62,0.13-1.28,0.35-1.93,0.72c-0.11,0.07-0.52,0.27-1.06,0.51c-0.96,0.42-2.39,0.99-4.12,1.58c-2.58,0.89-5.83,1.86-9.22,2.59
		c-3.39,0.73-6.93,1.22-10.05,1.22c-2.71,0.01-5.08-0.38-6.74-1.11c-0.83-0.36-1.49-0.79-2.01-1.29c-0.52-0.5-0.92-1.06-1.23-1.81
		c-1.55-3.74-4.18-6.57-7.1-8.6c-2.19-1.53-4.56-2.66-6.91-3.5c-3.52-1.26-6.99-1.91-9.81-2.26c-2.82-0.34-5-0.39-5.9-0.39
		c-0.27,0-0.42,0-0.45,0c-1.93,0.05-3.46,1.66-3.41,3.59C379.31,380.57,380.92,382.1,382.85,382.05L382.85,382.05z"/>
	<path class="st4" d="M226.16,219.87c1.91-1.65,3.98-2.7,6.27-3.38c2.29-0.68,4.81-0.96,7.49-0.96c3.45,0,7.14,0.46,10.85,1.03
		c3.71,0.56,7.44,1.23,11.03,1.55l0.31-3.49l-0.36,3.48c0.89,0.09,1.76,0.13,2.61,0.13c3.48,0,6.64-0.66,9.63-1.29
		c2.99-0.64,5.82-1.25,8.7-1.4c0.57-0.03,1.13-0.04,1.68-0.04c2.93,0,5.63,0.4,8.28,1.13c2.65,0.74,5.24,1.82,7.9,3.23
		c1.71,0.9,3.83,0.25,4.73-1.46c0.9-1.71,0.25-3.83-1.46-4.73c-3-1.59-6.07-2.88-9.29-3.78c-3.22-0.9-6.59-1.39-10.16-1.39
		c-0.67,0-1.35,0.02-2.04,0.05c-3.62,0.19-6.84,0.92-9.79,1.54c-2.95,0.63-5.62,1.15-8.18,1.14c-0.63,0-1.26-0.03-1.88-0.1l-0.03,0
		l-0.03,0c-3.17-0.28-6.79-0.92-10.6-1.5c-3.82-0.58-7.84-1.11-11.91-1.11c-3.16,0-6.35,0.32-9.47,1.24
		c-3.12,0.92-6.16,2.46-8.86,4.8c-1.46,1.26-1.62,3.47-0.36,4.94C222.48,220.98,224.69,221.14,226.16,219.87L226.16,219.87z"/>
	<path class="st4" d="M232.79,230.74c1.32-1.2,2.89-1.99,4.78-2.52c1.88-0.52,4.07-0.74,6.42-0.74c2.67,0,5.55,0.28,8.4,0.63
		c2.86,0.34,5.7,0.75,8.39,0.95l0.26-3.49l-0.36,3.48c1.15,0.12,2.31,0.17,3.45,0.17c3.01,0,5.99-0.32,8.89-0.61
		c2.9-0.3,5.72-0.58,8.33-0.58c2.11,0,4.07,0.18,5.86,0.63c1.79,0.45,3.4,1.16,4.92,2.26c1.56,1.14,3.75,0.8,4.89-0.77
		c1.14-1.56,0.8-3.75-0.77-4.89c-2.31-1.68-4.81-2.76-7.34-3.39c-2.53-0.63-5.07-0.84-7.56-0.84c-3.1,0-6.14,0.32-9.04,0.61
		c-2.9,0.3-5.67,0.58-8.18,0.58c-0.96,0-1.87-0.04-2.74-0.13l-0.05,0l-0.05,0c-2.35-0.18-5.13-0.57-8.08-0.92
		c-2.95-0.35-6.08-0.68-9.24-0.68c-2.77,0-5.57,0.25-8.29,1c-2.71,0.75-5.36,2.04-7.61,4.08c-1.43,1.3-1.54,3.51-0.24,4.94
		C229.14,231.93,231.35,232.04,232.79,230.74L232.79,230.74z"/>
	<path class="st4" d="M297.87,375.64c8.39,3.02,14.75,6.7,19.59,10.6c7.25,5.85,11.14,12.18,13.29,17.72
		c2.14,5.54,2.5,10.3,2.5,12.8c0,0.64-0.02,1.14-0.04,1.45c-0.01,0.16-0.02,0.27-0.03,0.34l-0.01,0.06l0,0l2.07,0.25l-2.06-0.26
		l0,0.01l2.07,0.25l-2.06-0.26l3.47,0.44l-0.92-3.38c-25.92,7.08-50.34,9.44-71.37,9.44c-21.03,0-38.68-2.36-51.04-4.72
		c-6.18-1.18-11.04-2.36-14.34-3.23c-1.65-0.44-2.91-0.8-3.75-1.05c-0.42-0.13-0.73-0.22-0.94-0.29c-0.1-0.03-0.18-0.06-0.23-0.07
		l-0.05-0.02l-0.01,0l-1.1,3.32l3.5-0.07l-1.92,0.04l1.92-0.03l0-0.01l-1.92,0.04l1.92-0.03l0-0.07c-0.01-0.82,0.15-9.06,4.72-18.24
		c2.29-4.6,5.66-9.45,10.68-13.84c5.03-4.4,11.73-8.36,20.79-11.14c1.85-0.56,2.89-2.52,2.32-4.37c-0.56-1.85-2.52-2.89-4.37-2.32
		c-9.93,3.03-17.57,7.5-23.35,12.56c-8.69,7.6-13.15,16.46-15.42,23.6c-2.27,7.15-2.38,12.63-2.38,13.75c0,0.11,0,0.18,0,0.2
		l0.05,2.47l2.35,0.78c0.24,0.08,29.44,9.74,72.56,9.75c21.56,0,46.6-2.42,73.22-9.69l2.26-0.62l0.29-2.32
		c0.02-0.13,0.13-1.1,0.13-2.73c0-4.2-0.78-12.81-6.25-22.11c-2.73-4.64-6.64-9.43-12.14-13.86c-5.5-4.43-12.57-8.49-21.61-11.74
		c-1.82-0.65-3.82,0.29-4.48,2.11C295.1,372.99,296.05,374.99,297.87,375.64L297.87,375.64z"/>
	<path class="st4" d="M301.44,409.42l2.8,16.42c0.32,1.91,2.13,3.19,4.04,2.86c1.91-0.32,3.19-2.13,2.86-4.04l-2.8-16.42
		c-0.32-1.91-2.13-3.19-4.04-2.86C302.4,405.71,301.11,407.52,301.44,409.42"/>
	<path class="st4" d="M273.74,408.73v19c0,1.93,1.57,3.5,3.5,3.5c1.93,0,3.5-1.57,3.5-3.5v-19c0-1.93-1.57-3.5-3.5-3.5
		C275.31,405.23,273.74,406.8,273.74,408.73"/>
	<path class="st4" d="M247.74,408.73v19c0,1.93,1.57,3.5,3.5,3.5c1.93,0,3.5-1.57,3.5-3.5v-19c0-1.93-1.57-3.5-3.5-3.5
		C249.31,405.23,247.74,406.8,247.74,408.73"/>
	<path class="st4" d="M220.86,408.01l-3.28,13.5c-0.46,1.88,0.7,3.77,2.57,4.23c1.88,0.46,3.77-0.7,4.23-2.57l3.28-13.5
		c0.46-1.88-0.7-3.77-2.57-4.23C223.21,404.98,221.31,406.13,220.86,408.01"/>
	<path class="st4" d="M316.89,274.52l1-3.35c-0.06-0.02-4.3-1.28-10.19-2.56c-5.9-1.27-13.4-2.56-20.2-2.57
		c-1.21,0-2.4,0.04-3.56,0.14c-0.11,0.01-0.2,0.01-0.28,0.01l-0.17-0.01l-0.02,0l-0.08,0.42l0.13-0.41l-0.05-0.01l-0.08,0.42
		l0.13-0.41l-0.42,1.32l0.77-1.15c-0.16-0.11-0.29-0.16-0.35-0.18l-0.42,1.32l0.77-1.15l-1.12,1.66l1.79-0.88
		c-0.15-0.32-0.44-0.63-0.68-0.78l-1.12,1.66l1.79-0.88l-1.55,0.76h1.74c0-0.14-0.03-0.44-0.19-0.76l-1.55,0.76h1.74h-0.86
		l0.85,0.12l0.01-0.12h-0.86l0.85,0.12l-0.28-0.04l0.27,0.06l0-0.02l-0.28-0.04l0.27,0.06c0,0,0.01-0.06,0.05-0.16
		c0.08-0.2,0.26-0.54,0.55-0.94c0.51-0.71,1.34-1.61,2.42-2.5c1.63-1.34,3.81-2.69,6.35-3.67c2.54-0.99,5.43-1.62,8.51-1.62
		c3.54,0,7.35,0.82,11.36,2.97c4,2.15,8.23,5.67,12.42,11.19l2.79-2.12l-2.91,1.94l0.11-0.07l-0.11,0.07l0,0l0.11-0.07l-0.11,0.07
		c0.05,0.08,0.5,0.79,0.89,1.66c0.19,0.43,0.37,0.91,0.49,1.34c0.12,0.43,0.17,0.82,0.17,1.04c0,0.09-0.01,0.16-0.01,0.2l-0.01,0.04
		l0.23,0.07l-0.21-0.13l-0.03,0.06l0.23,0.07l-0.21-0.13l0.28,0.18l-0.22-0.25l-0.06,0.07l0.28,0.18l-0.22-0.25l0.07,0.08
		l-0.07-0.09l-0.01,0.01l0.07,0.08l-0.07-0.09l0.49,0.64l-0.25-0.76c-0.11,0.04-0.21,0.1-0.23,0.11l0.49,0.64l-0.25-0.76l0.31,0.93
		l0-0.98c-0.07,0-0.2,0.01-0.31,0.05l0.31,0.93l0-0.98v0.37l0.06-0.36l-0.06,0v0.37l0.06-0.36c-0.01,0.01-0.41-0.11-1-0.46
		c-0.89-0.5-2.18-1.42-3.73-2.43c-1.56-1.01-3.41-2.11-5.61-2.97l-0.13-0.05l-0.14-0.04L316.89,274.52l-1.27,3.26
		c2.18,0.84,4.15,2.18,6.05,3.46c0.96,0.64,1.9,1.27,2.95,1.82c0.53,0.27,1.09,0.52,1.71,0.71c0.63,0.19,1.33,0.33,2.1,0.33
		c0.71,0,1.47-0.13,2.19-0.41c0.72-0.28,1.37-0.7,1.92-1.19c0.84-0.74,1.45-1.68,1.81-2.62c0.36-0.95,0.48-1.88,0.48-2.72
		c0-1.14-0.21-2.16-0.47-3.08c-0.4-1.37-0.94-2.52-1.39-3.38c-0.45-0.85-0.81-1.39-0.86-1.46l-0.06-0.09l-0.07-0.09
		c-4.7-6.18-9.67-10.43-14.68-13.12c-5.01-2.7-10.04-3.8-14.67-3.8c-3.45,0-6.67,0.6-9.57,1.56c-4.35,1.45-7.95,3.68-10.6,6.06
		c-1.32,1.2-2.41,2.43-3.23,3.72c-0.41,0.65-0.76,1.31-1.03,2.03c-0.26,0.72-0.45,1.5-0.45,2.39c0,0.68,0.12,1.43,0.45,2.16
		c0.24,0.55,0.6,1.07,1.04,1.5c0.65,0.65,1.44,1.06,2.19,1.3c0.76,0.24,1.5,0.32,2.24,0.32c0.28,0,0.56-0.01,0.84-0.04
		c0.94-0.08,1.95-0.11,2.99-0.11c5.92-0.01,13.11,1.19,18.72,2.41c2.81,0.61,5.24,1.22,6.96,1.67c0.86,0.23,1.54,0.42,2,0.55
		c0.23,0.07,0.41,0.12,0.53,0.15l0.13,0.04l0.04,0.01L316.89,274.52l-1.27,3.26L316.89,274.52z"/>
	<path class="st4" d="M217.96,274.52l1,3.35l0.04-0.01c0.43-0.13,4.61-1.35,10.16-2.53c5.53-1.18,12.46-2.3,18.19-2.3
		c1.05,0,2.05,0.04,2.99,0.11c0.28,0.02,0.56,0.04,0.84,0.04c0.66,0,1.32-0.07,1.99-0.25c0.5-0.14,1.02-0.34,1.51-0.64
		c0.74-0.45,1.43-1.15,1.84-1.96c0.42-0.81,0.58-1.67,0.58-2.43c-0.01-1.19-0.33-2.17-0.75-3.09c-0.75-1.59-1.88-3.03-3.33-4.45
		c-2.17-2.11-5.09-4.13-8.62-5.66c-3.52-1.53-7.66-2.56-12.19-2.56c-4.64,0-9.66,1.1-14.67,3.8c-5.01,2.69-9.99,6.94-14.68,13.12
		l-0.07,0.09l-0.06,0.09c-0.06,0.1-0.68,1.03-1.33,2.41c-0.32,0.7-0.66,1.51-0.92,2.43c-0.26,0.92-0.47,1.94-0.47,3.08
		c0,0.85,0.12,1.78,0.48,2.72c0.35,0.94,0.97,1.88,1.81,2.62c0.55,0.49,1.2,0.91,1.92,1.19c0.71,0.28,1.48,0.41,2.19,0.41
		c0.77,0,1.48-0.14,2.1-0.33c1.1-0.35,1.99-0.84,2.85-1.36c1.29-0.79,2.51-1.67,3.8-2.49c1.29-0.82,2.63-1.59,4.06-2.14
		L217.96,274.52l1,3.35L217.96,274.52l-1.27-3.26c-3.12,1.22-5.56,2.93-7.42,4.18c-0.92,0.62-1.7,1.13-2.25,1.4
		c-0.27,0.14-0.47,0.22-0.58,0.25l-0.09,0.02l0.06,0.36v-0.37l-0.06,0l0.06,0.36v-0.37v0.99l0.36-0.92
		c-0.12-0.05-0.28-0.07-0.36-0.07v0.99l0.36-0.92l-0.32,0.82l0.47-0.75l-0.15-0.07l-0.32,0.82l0.47-0.75l-0.27,0.43l0.3-0.4
		l-0.04-0.02l-0.27,0.43l0.3-0.4l-0.07,0.09l0.08-0.08l-0.01-0.01l-0.07,0.09l0.08-0.08l-0.21,0.24l0.3-0.11l-0.09-0.12l-0.21,0.24
		l0.3-0.11l-0.05,0.02l0.05-0.02l0,0l-0.05,0.02l0.05-0.02c0,0-0.02-0.08-0.02-0.24c0-0.24,0.06-0.67,0.2-1.13
		c0.2-0.7,0.56-1.49,0.86-2.05c0.15-0.29,0.29-0.52,0.38-0.67l0.1-0.16l0.02-0.03l0,0l-1.82-1.2l1.82,1.21l0.01-0.01l-1.82-1.2
		l1.82,1.21l-2.91-1.94l2.79,2.12c4.2-5.52,8.42-9.04,12.42-11.19c4.01-2.15,7.82-2.96,11.36-2.97c2.63,0,5.11,0.46,7.36,1.21
		c3.37,1.11,6.22,2.9,8.11,4.61c0.94,0.85,1.64,1.68,2.02,2.29c0.2,0.3,0.31,0.55,0.36,0.69l0.03,0.1l0.67-0.14h-0.68
		c0,0.09,0.01,0.13,0.01,0.14l0.67-0.14h-0.68h1.71l-1.55-0.69c-0.13,0.3-0.16,0.56-0.16,0.69h1.71l-1.55-0.69l1.87,0.84l-1.44-1.46
		c-0.17,0.17-0.33,0.4-0.43,0.62l1.87,0.84l-1.44-1.46l1.11,1.12l-0.48-1.52c-0.1,0.03-0.37,0.14-0.63,0.4l1.11,1.12l-0.48-1.52
		l0.17,0.53l-0.12-0.54l-0.05,0.01l0.17,0.53l-0.12-0.54l0,0c-0.02,0-0.08,0.01-0.19,0.01c-0.07,0-0.17,0-0.28-0.01
		c-1.16-0.09-2.35-0.14-3.56-0.14c-6.8,0.01-14.31,1.3-20.2,2.57c-5.89,1.27-10.13,2.54-10.19,2.56l-0.14,0.04l-0.13,0.05
		L217.96,274.52z"/>
	<path class="st4" d="M250.96,308.23c-0.03,0.08-3.02,7.11-6.02,17.02c-1.5,4.95-3,10.62-4.14,16.52c-1.13,5.9-1.9,12.02-1.91,17.91
		c0,3.9,0.34,7.7,1.17,11.28c0.62,2.68,1.52,5.25,2.79,7.61c1.89,3.54,4.65,6.62,8.32,8.77c3.67,2.15,8.18,3.34,13.46,3.47
		c0.33,0.01,0.65,0.01,0.97,0.01c4.55,0,8.51-0.84,11.85-2.48c2.51-1.22,4.64-2.89,6.37-4.87c2.6-2.97,4.28-6.58,5.31-10.47
		c1.04-3.9,1.45-8.11,1.45-12.45c0-5.92-0.77-12.11-1.89-18.09c-3.39-17.93-10.06-34.07-10.1-34.19c-0.74-1.79-2.78-2.64-4.57-1.9
		c-1.79,0.74-2.64,2.78-1.9,4.57l0.03,0.07c0.31,0.77,3.2,7.95,5.99,17.56c1.39,4.81,2.76,10.22,3.78,15.73
		c1.02,5.51,1.67,11.11,1.67,16.26c0,3.47-0.3,6.72-0.95,9.59c-0.49,2.15-1.17,4.08-2.05,5.75c-1.33,2.5-3.05,4.38-5.39,5.74
		c-2.35,1.35-5.42,2.19-9.58,2.2c-0.26,0-0.52,0-0.79-0.01c-3.88-0.1-6.88-0.86-9.25-2.05c-1.77-0.89-3.21-2.03-4.42-3.4
		c-1.81-2.06-3.13-4.72-3.99-7.9c-0.86-3.17-1.26-6.85-1.26-10.78c0-5.28,0.7-11,1.78-16.59c1.61-8.38,4.06-16.46,6.09-22.4
		c1.02-2.97,1.93-5.42,2.59-7.11c0.33-0.85,0.59-1.51,0.78-1.95c0.09-0.22,0.16-0.39,0.21-0.5l0.05-0.12l0.01-0.03
		c0.76-1.78-0.07-3.83-1.85-4.59C253.77,305.62,251.71,306.45,250.96,308.23L250.96,308.23z"/>
	<path class="st4" d="M243.05,342.95c-4.73,0-9.05,1.93-12.15,5.03c-3.1,3.1-5.03,7.42-5.03,12.15c0,4.73,1.93,9.05,5.03,12.15
		c3.1,3.1,7.42,5.03,12.15,5.03c0.62,0,1.23-0.03,1.83-0.09c1.92-0.2,3.32-1.92,3.12-3.84c-0.2-1.92-1.92-3.32-3.84-3.12
		c-0.36,0.04-0.73,0.06-1.11,0.06c-2.82,0-5.35-1.13-7.2-2.98c-1.85-1.85-2.98-4.38-2.98-7.2c0-2.82,1.13-5.35,2.98-7.2
		c1.85-1.85,4.38-2.98,7.2-2.98c1.93,0,3.5-1.57,3.5-3.5C246.55,344.52,244.98,342.95,243.05,342.95L243.05,342.95z"/>
	<path class="st4" d="M284.83,377.22c0.6,0.06,1.21,0.09,1.83,0.09c4.73,0,9.05-1.93,12.15-5.03c3.1-3.1,5.03-7.42,5.03-12.15
		c0-4.73-1.93-9.05-5.03-12.15c-3.1-3.1-7.42-5.03-12.15-5.03c-1.93,0-3.5,1.57-3.5,3.5c0,1.93,1.57,3.5,3.5,3.5
		c2.82,0,5.35,1.13,7.2,2.98c1.85,1.85,2.98,4.38,2.98,7.2c0,2.82-1.13,5.34-2.98,7.2c-1.85,1.85-4.38,2.98-7.2,2.98
		c-0.38,0-0.75-0.02-1.11-0.06c-1.92-0.2-3.64,1.2-3.84,3.12C281.51,375.3,282.91,377.02,284.83,377.22L284.83,377.22z"/>
	<path class="st4" d="M228.48,455.99c-9.93-0.4-19.35-3-27.93-7.38c-12.87-6.58-23.86-17.22-31.62-30.53
		c-7.77-13.31-12.3-29.27-12.3-46.46c0-24.52,9.24-46.55,23.9-61.93l0.8-0.84l11.78-97.64c0.23-1.92-1.14-3.66-3.06-3.89
		c-1.92-0.23-3.66,1.14-3.89,3.06l-11.64,96.48l3.47,0.42l-2.53-2.41c-15.94,16.73-25.83,40.47-25.83,66.76
		c0,24.57,8.64,46.91,22.78,63.39c7.07,8.24,15.52,15.01,24.96,19.83c9.44,4.83,19.87,7.7,30.84,8.15c1.93,0.08,3.56-1.42,3.64-3.36
		C231.91,457.7,230.41,456.07,228.48,455.99L228.48,455.99z"/>
	<path class="st4" d="M315.53,458.88c15.86-2.61,30.75-10.57,42.79-22.43c12.04-11.86,21.26-27.64,25.78-45.96
		c1.99-8.08,2.94-16.14,2.94-24.01c0-27.67-11.74-53.01-31.54-68.15l-2.12,2.78l3.43-0.71l-18.99-92.22
		c-0.39-1.89-2.24-3.11-4.13-2.72c-1.89,0.39-3.11,2.24-2.72,4.13l19.26,93.5l1.04,0.79c17.84,13.61,28.79,36.87,28.79,62.58
		c0,7.31-0.88,14.81-2.74,22.34c-4.21,17.08-12.79,31.72-23.89,42.65c-11.11,10.94-24.73,18.16-39.01,20.51
		c-1.91,0.31-3.2,2.11-2.89,4.02C311.82,457.9,313.62,459.2,315.53,458.88L315.53,458.88z"/>
	<path class="st4" d="M315.85,438.17c-1.65,11.24-7.31,21.18-15.5,28.32c-8.19,7.13-18.87,11.45-30.58,11.45
		c-11.16,0-21.38-3.91-29.4-10.45c-8.02-6.54-13.82-15.69-16.1-26.15c-0.41-1.89-2.28-3.09-4.17-2.67
		c-1.89,0.41-3.09,2.28-2.67,4.17c2.63,12.05,9.3,22.57,18.52,30.08c9.22,7.51,21.01,12.03,33.82,12.03
		c13.45,0,25.78-4.97,35.18-13.17c9.41-8.2,15.93-19.64,17.82-32.58c0.28-1.91-1.04-3.69-2.96-3.97
		C317.91,434.93,316.13,436.26,315.85,438.17L315.85,438.17z"/>
	<path class="st5" d="M210.12,350.1c0,8.26-6.7,14.96-14.96,14.96c-8.26,0-14.96-6.7-14.96-14.96c0-8.26,6.7-14.96,14.96-14.96
		C203.42,335.14,210.12,341.84,210.12,350.1z"/>
	<path class="st5" d="M354.6,350.1c0,8.26-6.7,14.96-14.96,14.96c-8.26,0-14.96-6.7-14.96-14.96c0-8.26,6.7-14.96,14.96-14.96
		C347.9,335.14,354.6,341.84,354.6,350.1z"/>
</g>
</svg>
